<?xml version="1.0" standalone="no"?>
<!DOCTYPE svg PUBLIC "-//W3C//DTD SVG 20010904//EN"
 "http://www.w3.org/TR/2001/REC-SVG-20010904/DTD/svg10.dtd">
<svg version="1.0" xmlns="http://www.w3.org/2000/svg"
 width="1024.000000pt" height="1024.000000pt" viewBox="0 0 1024.000000 1024.000000"
 preserveAspectRatio="xMidYMid meet">

<g transform="translate(0.000000,1024.000000) scale(0.100000,-0.100000)"
fill="#000000" stroke="none">
<path d="M3965 8604 c-137 -29 -255 -85 -356 -168 -77 -64 -134 -137 -182
-232 -72 -142 -70 -119 -77 -744 -5 -487 -8 -571 -22 -606 -32 -83 -79 -141
-155 -193 -40 -27 -156 -71 -188 -71 l-25 0 0 -193 0 -193 53 -11 c121 -25
244 -109 289 -197 47 -92 48 -100 48 -676 1 -480 3 -553 18 -610 47 -179 211
-359 391 -429 88 -35 193 -51 341 -51 l140 0 0 169 0 168 -137 6 c-149 5 -181
13 -259 63 -62 39 -105 98 -133 182 -20 59 -21 82 -21 584 0 579 -3 610 -62
720 -35 67 -153 198 -217 242 l-40 28 57 47 c120 100 196 199 240 308 l27 68
5 570 c5 558 5 571 27 624 47 115 123 184 251 228 l67 23 795 -3 795 -2 80
-23 c195 -57 339 -137 457 -255 288 -288 359 -753 171 -1131 -47 -94 -85 -148
-170 -237 -125 -131 -269 -217 -459 -275 l-89 -28 -535 -6 c-294 -3 -544 -10
-555 -15 -69 -29 -116 -96 -117 -165 0 -50 37 -115 82 -143 34 -22 42 -22 465
-25 l430 -4 39 -56 c21 -32 129 -187 239 -347 110 -159 331 -483 490 -720 160
-236 318 -468 351 -514 l61 -84 217 -1 c120 -1 218 1 218 3 0 3 -6 12 -14 20
-7 9 -78 113 -158 231 -292 432 -599 882 -935 1368 l-102 147 97 31 c206 64
360 160 522 324 172 173 267 342 333 590 30 112 31 122 31 340 1 212 -1 231
-26 330 -139 552 -514 894 -1078 985 -80 12 -222 15 -895 14 -440 -1 -809 -3
-820 -5z"/>
<path d="M7296 3153 c-205 -47 -337 -223 -338 -451 -1 -308 182 -491 490 -492
172 0 300 60 379 178 52 77 73 142 80 247 12 169 -40 320 -142 413 -117 107
-291 146 -469 105z m256 -177 c150 -72 204 -322 104 -488 -45 -77 -113 -112
-216 -111 -154 0 -243 78 -270 235 -14 76 -2 185 26 244 26 54 84 109 135 128
56 20 170 16 221 -8z"/>
<path d="M3240 2685 l0 -465 95 0 95 0 0 175 0 175 185 0 185 0 0 85 0 85
-185 0 -185 0 0 115 0 115 200 0 200 0 0 90 0 90 -295 0 -295 0 0 -465z"/>
<path d="M4312 3098 c-11 -29 -92 -237 -181 -461 -89 -225 -161 -411 -161
-413 0 -2 46 -4 103 -4 l102 0 30 88 31 87 198 0 199 0 33 -85 32 -85 102 -3
102 -3 -8 23 c-4 13 -46 122 -94 243 -48 121 -127 320 -175 443 l-87 222 -103
0 -104 0 -19 -52z m195 -353 l61 -185 -134 0 -134 0 44 123 c77 214 90 247 96
247 3 0 33 -83 67 -185z"/>
<path d="M5120 2685 l0 -465 98 0 97 0 -3 147 -3 148 46 45 c28 28 48 41 53
34 4 -6 65 -92 135 -192 l128 -182 130 0 130 0 -93 121 c-199 258 -298 390
-298 395 0 6 179 200 312 339 l67 70 -117 3 -117 3 -52 -58 c-29 -32 -110
-122 -180 -200 -71 -78 -131 -142 -135 -142 -5 -1 -8 89 -8 199 l0 200 -95 0
-95 0 0 -465z"/>
<path d="M6067 3063 l1 -88 141 -3 141 -3 0 -374 0 -375 100 0 100 0 0 378 0
377 136 0 136 0 1 88 2 87 -380 0 -380 0 2 -87z"/>
<path d="M8180 2683 l0 -463 95 0 95 0 0 165 0 166 77 -3 76 -3 83 -160 83
-160 111 -3 111 -3 -22 43 c-12 24 -56 104 -99 179 l-76 135 48 27 c90 50 133
138 129 261 -3 120 -56 204 -154 246 -60 26 -98 30 -359 33 l-198 2 0 -462z
m447 294 c50 -27 68 -62 67 -132 -1 -114 -48 -145 -219 -145 l-105 0 0 151 0
152 113 -5 c79 -3 122 -9 144 -21z"/>
<path d="M1300 2681 l0 -461 100 0 100 0 0 165 0 165 78 0 77 0 83 -165 82
-165 110 0 c60 0 110 2 110 4 0 2 -43 80 -95 174 -52 94 -95 175 -95 179 1 4
20 17 43 29 142 70 176 307 63 441 -15 18 -53 45 -84 60 l-57 28 -257 3 -258
4 0 -461z m468 285 c57 -30 78 -117 47 -192 -23 -55 -75 -74 -207 -74 l-108 0
0 146 0 146 118 -4 c87 -3 125 -8 150 -22z"/>
<path d="M2320 2680 l0 -460 305 0 305 0 0 84 0 83 -210 -1 -210 -1 0 108 0
107 190 0 190 0 0 80 0 80 -190 0 -190 0 0 105 0 105 200 0 200 0 0 85 0 85
-295 0 -295 0 0 -460z"/>
</g>
</svg>
